<?xml version="1.0" standalone="no"?><!DOCTYPE svg PUBLIC "-//W3C//DTD SVG 1.1//EN" "http://www.w3.org/Graphics/SVG/1.1/DTD/svg11.dtd"><svg t="1768412409663" class="icon" viewBox="0 0 1024 1024" version="1.1" xmlns="http://www.w3.org/2000/svg" p-id="7807" xmlns:xlink="http://www.w3.org/1999/xlink" width="256" height="256"><path d="M864.5 516.2c-2.4-4.1-6.2-6.9-10.4-8.3L286.4 159c-8.9-5-20.3-2-25.5 6.6-2.1 3.6-2.8 7.5-2.3 11.3v697.5c-0.5 3.8 0.2 7.8 2.3 11.3 5.2 8.7 16.6 11.6 25.5 6.6l567.7-349c4.2-1.3 8-4.2 10.4-8.3 1.7-3 2.5-6.3 2.4-9.5 0.1-3-0.7-6.3-2.4-9.3z m-569-308.8l517.6 318.3L295.5 844V207.4z" p-id="7808" fill="#ffffff"></path></svg>