<?xml version="1.0" standalone="no"?><!DOCTYPE svg PUBLIC "-//W3C//DTD SVG 1.1//EN" "http://www.w3.org/Graphics/SVG/1.1/DTD/svg11.dtd"><svg t="1768393649266" class="icon" viewBox="0 0 1024 1024" version="1.1" xmlns="http://www.w3.org/2000/svg" p-id="3449" width="256" height="256" xmlns:xlink="http://www.w3.org/1999/xlink"><path d="M398.506856 797.012005a391.508681 391.508681 0 0 0 254.463576-92.842512l309.162151 309.247485a35.498608 35.498608 0 0 0 25.599957 10.581315 36.351939 36.351939 0 0 0 25.599958-61.866563L704.25568 652.969578A397.90867 397.90867 0 0 0 797.012858 398.420669 398.506002 398.506002 0 0 0 398.506856 0 399.700667 399.700667 0 0 0 0.000853 398.506002a399.103335 399.103335 0 0 0 398.506003 398.506003zM397.141525 70.570549a326.996788 326.996788 0 0 1 326.655455 326.570122 326.484789 326.484789 0 0 1-326.655455 326.655456A326.996788 326.996788 0 0 1 70.656736 397.226005 327.508787 327.508787 0 0 1 397.226858 70.655882z" fill="#ffffff" opacity=".7" p-id="3450"></path></svg>